# xmcd
#
# Track frame offsets:
#	150
#	12300
#	26907
#	46148
#	62572
#	77329
#	92351
#	121072
#	130223
#	144470
#	157979
#	174116
#	189807
#
# Disc length: 2743 seconds
#
# Revision: 1
# Processed by: cddbd v1.5.2PL0 Copyright (c) Steve Scherf et al.
# Submitted via: audiograbber 1.83.01
#
DISCID=8e0ab50d
DTITLE=Duo Diesel - Travelin' Boots
DYEAR=2010
DGENRE=Country
TTITLE0=You Drive Me Crazy
TTITLE1=Mein Stiefel kommt in' Himmel
TTITLE2=Toes
TTITLE3=It's Five O'Clock Somewhere
TTITLE4=The Girl From Yesterday
TTITLE5=Dancin' Cowboys
TTITLE6=Lyin' Eyes
TTITLE7=From Me To You
TTITLE8=Just Call Me Lonesome
TTITLE9=Darlin'
TTITLE10=We've Got Tonight
TTITLE11=Black Coffee
TTITLE12=If Tomorrow Never Comes
EXTD=
EXTT0=
EXTT1=
EXTT2=
EXTT3=
EXTT4=
EXTT5=
EXTT6=
EXTT7=
EXTT8=
EXTT9=
EXTT10=
EXTT11=
EXTT12=
PLAYORDER=
